<svg xmlns="http://www.w3.org/2000/svg" xmlns:xlink="http://www.w3.org/1999/xlink" width="406" zoomAndPan="magnify" viewBox="0 0 304.5 78.749999" height="105" preserveAspectRatio="xMidYMid meet" version="1.2"><defs><clipPath id="a027d4dee9"><path d="M 224.664062 7.851562 L 250 7.851562 L 250 61.679688 L 224.664062 61.679688 Z M 224.664062 7.851562 "/></clipPath></defs><g id="ac809f8992"><g style="fill:#f2f2f2;fill-opacity:1;"><g transform="translate(11.693808, 53.692754)"><path style="stroke:none" d="M 1.09375 0 C 0.90625 0 0.785156 -0.03125 0.734375 -0.09375 C 0.679688 -0.15625 0.65625 -0.226562 0.65625 -0.3125 C 0.65625 -0.4375 0.8125 -0.640625 1.125 -0.921875 C 1.4375 -1.210938 1.78125 -1.507812 2.15625 -1.8125 C 2.539062 -2.113281 2.820312 -2.34375 3 -2.5 C 3.5 -2.914062 3.929688 -3.390625 4.296875 -3.921875 C 4.660156 -4.453125 5.050781 -5.082031 5.46875 -5.8125 C 6.613281 -7.820312 7.625 -9.878906 8.5 -11.984375 C 9.382812 -14.085938 10.269531 -16.191406 11.15625 -18.296875 C 12.039062 -20.410156 13.054688 -22.46875 14.203125 -24.46875 C 14.722656 -25.382812 15.289062 -26.164062 15.90625 -26.8125 C 16.519531 -27.46875 17.304688 -28.054688 18.265625 -28.578125 L 18.421875 -28.65625 L 12.40625 -28.65625 C 11.363281 -28.65625 10.582031 -28.472656 10.0625 -28.109375 C 9.550781 -27.742188 8.984375 -27.234375 8.359375 -26.578125 L 8.046875 -26.8125 C 8.671875 -27.625 9.238281 -28.347656 9.75 -28.984375 C 10.269531 -29.617188 10.816406 -30.171875 11.390625 -30.640625 C 11.679688 -30.847656 12 -30.992188 12.34375 -31.078125 C 12.695312 -31.171875 13.046875 -31.21875 13.390625 -31.21875 L 23.453125 -31.21875 C 25.796875 -31.21875 27.628906 -30.960938 28.953125 -30.453125 C 30.285156 -29.953125 31.226562 -29.28125 31.78125 -28.4375 C 32.34375 -27.59375 32.625 -26.648438 32.625 -25.609375 C 32.625 -24.410156 32.34375 -23.226562 31.78125 -22.0625 C 31.226562 -20.90625 30.441406 -19.863281 29.421875 -18.9375 C 28.410156 -18.019531 27.1875 -17.285156 25.75 -16.734375 C 24.320312 -16.191406 22.722656 -15.921875 20.953125 -15.921875 L 20.921875 -15.921875 C 21.878906 -10.878906 22.753906 -7.242188 23.546875 -5.015625 C 24.347656 -2.785156 25.21875 -1.671875 26.15625 -1.671875 C 26.59375 -1.671875 27.050781 -1.820312 27.53125 -2.125 C 28.019531 -2.425781 28.585938 -2.890625 29.234375 -3.515625 L 29.578125 -3.125 C 28.335938 -1.945312 27.304688 -1.078125 26.484375 -0.515625 C 25.660156 0.0351562 24.953125 0.3125 24.359375 0.3125 C 22.953125 0.3125 21.773438 -0.976562 20.828125 -3.5625 C 19.878906 -6.15625 18.921875 -10.273438 17.953125 -15.921875 L 13.421875 -15.921875 C 12.847656 -14.460938 12.234375 -13.007812 11.578125 -11.5625 C 10.929688 -10.125 10.222656 -8.71875 9.453125 -7.34375 C 8.953125 -6.457031 8.445312 -5.738281 7.9375 -5.1875 C 7.4375 -4.644531 6.804688 -4.148438 6.046875 -3.703125 L 4.171875 -2.578125 L 4.21875 -2.578125 L 9.796875 -2.734375 C 10.023438 -2.734375 10.140625 -2.65625 10.140625 -2.5 C 10.140625 -2.414062 10.054688 -2.222656 9.890625 -1.921875 C 9.722656 -1.628906 9.519531 -1.316406 9.28125 -0.984375 C 9.050781 -0.660156 8.847656 -0.421875 8.671875 -0.265625 C 8.535156 -0.160156 8.367188 -0.0859375 8.171875 -0.046875 C 7.984375 -0.015625 7.769531 0 7.53125 0 Z M 13.65625 -16.515625 L 21.3125 -16.515625 C 23.238281 -16.515625 24.816406 -16.867188 26.046875 -17.578125 C 27.285156 -18.296875 28.195312 -19.21875 28.78125 -20.34375 C 29.363281 -21.476562 29.65625 -22.6875 29.65625 -23.96875 C 29.65625 -25.21875 29.289062 -26.179688 28.5625 -26.859375 C 27.84375 -27.535156 26.867188 -28.003906 25.640625 -28.265625 C 24.421875 -28.523438 23.03125 -28.65625 21.46875 -28.65625 L 20.015625 -28.65625 C 19.609375 -28.238281 19.25 -27.773438 18.9375 -27.265625 C 18.625 -26.753906 18.296875 -26.210938 17.953125 -25.640625 C 17.097656 -24.179688 16.332031 -22.675781 15.65625 -21.125 C 14.976562 -19.582031 14.3125 -18.046875 13.65625 -16.515625 Z M 13.65625 -16.515625 "/></g></g><g style="fill:#f2f2f2;fill-opacity:1;"><g transform="translate(42.565404, 53.692754)"><path style="stroke:none" d="M 5.078125 0.265625 C 4.003906 0.265625 3.128906 0.046875 2.453125 -0.390625 C 1.773438 -0.828125 1.273438 -1.394531 0.953125 -2.09375 C 0.628906 -2.800781 0.46875 -3.535156 0.46875 -4.296875 C 0.46875 -5.671875 0.785156 -7.085938 1.421875 -8.546875 C 2.054688 -10.003906 2.90625 -11.398438 3.96875 -12.734375 C 5.039062 -14.078125 6.234375 -15.28125 7.546875 -16.34375 C 8.867188 -17.414062 10.21875 -18.265625 11.59375 -18.890625 C 12.96875 -19.515625 14.269531 -19.828125 15.5 -19.828125 C 16.507812 -19.828125 17.269531 -19.617188 17.78125 -19.203125 C 18.289062 -18.785156 18.546875 -18.238281 18.546875 -17.5625 C 18.546875 -16.9375 18.320312 -16.265625 17.875 -15.546875 C 17.4375 -14.835938 16.675781 -14.015625 15.59375 -13.078125 C 14.507812 -12.140625 13.019531 -11.019531 11.125 -9.71875 C 9.226562 -8.414062 6.820312 -6.84375 3.90625 -5 C 4.03125 -4.082031 4.382812 -3.332031 4.96875 -2.75 C 5.5625 -2.164062 6.414062 -1.875 7.53125 -1.875 C 8.207031 -1.875 9.039062 -2.046875 10.03125 -2.390625 C 11.019531 -2.742188 12.191406 -3.519531 13.546875 -4.71875 L 13.859375 -4.375 C 12.140625 -2.78125 10.492188 -1.609375 8.921875 -0.859375 C 7.347656 -0.109375 6.066406 0.265625 5.078125 0.265625 Z M 3.859375 -5.546875 C 6.617188 -7.265625 8.820312 -8.753906 10.46875 -10.015625 C 12.125 -11.273438 13.328125 -12.40625 14.078125 -13.40625 C 14.835938 -14.40625 15.21875 -15.375 15.21875 -16.3125 C 15.21875 -16.96875 15.003906 -17.46875 14.578125 -17.8125 C 14.148438 -18.164062 13.609375 -18.34375 12.953125 -18.34375 C 11.960938 -18.34375 11.003906 -18.066406 10.078125 -17.515625 C 9.160156 -16.972656 8.316406 -16.242188 7.546875 -15.328125 C 6.785156 -14.421875 6.125 -13.40625 5.5625 -12.28125 C 5 -11.164062 4.566406 -10.03125 4.265625 -8.875 C 3.972656 -7.71875 3.835938 -6.617188 3.859375 -5.578125 Z M 3.859375 -5.546875 "/></g></g><g style="fill:#f2f2f2;fill-opacity:1;"><g transform="translate(59.659919, 53.692754)"><path style="stroke:none" d="M 2.0625 0.265625 C 0.632812 0.265625 -0.394531 -0.00390625 -1.03125 -0.546875 C -1.664062 -1.085938 -1.957031 -1.765625 -1.90625 -2.578125 C -1.851562 -3.148438 -1.566406 -3.75 -1.046875 -4.375 C -0.523438 -5 0.289062 -5.632812 1.40625 -6.28125 L 1.671875 -6.046875 C 1.492188 -5.765625 1.332031 -5.441406 1.1875 -5.078125 C 1.039062 -4.710938 0.96875 -4.320312 0.96875 -3.90625 C 0.96875 -3.144531 1.234375 -2.453125 1.765625 -1.828125 C 2.304688 -1.203125 3.1875 -0.878906 4.40625 -0.859375 C 5.5 -0.859375 6.445312 -1.207031 7.25 -1.90625 C 8.0625 -2.613281 8.46875 -3.539062 8.46875 -4.6875 C 8.46875 -5.4375 8.289062 -6.207031 7.9375 -7 C 7.59375 -7.800781 7.191406 -8.585938 6.734375 -9.359375 C 6.273438 -10.140625 5.875 -10.914062 5.53125 -11.6875 C 5.195312 -12.457031 5.046875 -13.207031 5.078125 -13.9375 C 5.128906 -15.082031 5.582031 -16.097656 6.4375 -16.984375 C 7.300781 -17.867188 8.390625 -18.554688 9.703125 -19.046875 C 11.015625 -19.535156 12.347656 -19.78125 13.703125 -19.78125 C 14.222656 -19.78125 14.757812 -19.738281 15.3125 -19.65625 C 15.875 -19.582031 16.347656 -19.460938 16.734375 -19.296875 C 17.128906 -19.128906 17.328125 -18.929688 17.328125 -18.703125 C 17.328125 -18.203125 17.09375 -17.703125 16.625 -17.203125 C 16.15625 -16.710938 15.582031 -16.46875 14.90625 -16.46875 C 14.28125 -16.46875 13.546875 -16.65625 12.703125 -17.03125 C 11.859375 -17.414062 10.8125 -17.894531 9.5625 -18.46875 C 8.882812 -18.207031 8.398438 -17.859375 8.109375 -17.421875 C 7.828125 -16.992188 7.660156 -16.546875 7.609375 -16.078125 C 7.585938 -15.273438 7.75 -14.472656 8.09375 -13.671875 C 8.445312 -12.878906 8.859375 -12.070312 9.328125 -11.25 C 9.796875 -10.4375 10.210938 -9.613281 10.578125 -8.78125 C 10.941406 -7.945312 11.097656 -7.101562 11.046875 -6.25 C 10.992188 -5.363281 10.691406 -4.519531 10.140625 -3.71875 C 9.597656 -2.925781 8.890625 -2.226562 8.015625 -1.625 C 7.148438 -1.03125 6.203125 -0.566406 5.171875 -0.234375 C 4.140625 0.0976562 3.101562 0.265625 2.0625 0.265625 Z M 2.0625 0.265625 "/></g></g><g style="fill:#f2f2f2;fill-opacity:1;"><g transform="translate(74.061463, 53.692754)"><path style="stroke:none" d="M 15.1875 0.3125 C 14.351562 0.3125 13.789062 0.046875 13.5 -0.484375 C 13.21875 -1.015625 13.078125 -1.515625 13.078125 -1.984375 C 13.078125 -3.210938 13.429688 -4.671875 14.140625 -6.359375 C 14.859375 -8.054688 15.703125 -9.773438 16.671875 -11.515625 C 15.804688 -10.390625 14.941406 -9.320312 14.078125 -8.3125 C 13.222656 -7.300781 12.378906 -6.351562 11.546875 -5.46875 C 9.941406 -3.71875 8.4375 -2.316406 7.03125 -1.265625 C 5.625 -0.210938 4.425781 0.3125 3.4375 0.3125 C 2.78125 0.3125 2.171875 0.0859375 1.609375 -0.359375 C 1.054688 -0.816406 0.78125 -1.4375 0.78125 -2.21875 C 0.78125 -2.875 1.015625 -3.6875 1.484375 -4.65625 C 1.953125 -5.632812 2.535156 -6.695312 3.234375 -7.84375 C 3.941406 -8.988281 4.640625 -10.125 5.328125 -11.25 C 6.015625 -12.382812 6.59375 -13.425781 7.0625 -14.375 C 7.53125 -15.332031 7.765625 -16.109375 7.765625 -16.703125 C 7.765625 -17.359375 7.453125 -17.6875 6.828125 -17.6875 C 6.410156 -17.6875 5.890625 -17.515625 5.265625 -17.171875 C 4.640625 -16.835938 3.898438 -16.265625 3.046875 -15.453125 L 2.734375 -15.84375 C 4.140625 -17.144531 5.40625 -18.132812 6.53125 -18.8125 C 7.664062 -19.488281 8.5625 -19.828125 9.21875 -19.828125 C 9.96875 -19.828125 10.488281 -19.597656 10.78125 -19.140625 C 11.082031 -18.691406 11.234375 -18.242188 11.234375 -17.796875 C 11.234375 -17.097656 11 -16.234375 10.53125 -15.203125 C 10.0625 -14.171875 9.484375 -13.0625 8.796875 -11.875 C 8.109375 -10.695312 7.421875 -9.535156 6.734375 -8.390625 C 6.046875 -7.242188 5.46875 -6.203125 5 -5.265625 C 4.53125 -4.328125 4.296875 -3.585938 4.296875 -3.046875 C 4.296875 -2.734375 4.382812 -2.445312 4.5625 -2.1875 C 4.75 -1.925781 5.085938 -1.796875 5.578125 -1.796875 C 6.253906 -1.796875 7.054688 -2.144531 7.984375 -2.84375 C 8.910156 -3.550781 9.96875 -4.539062 11.15625 -5.8125 C 12.382812 -7.09375 13.664062 -8.554688 15 -10.203125 C 16.34375 -11.859375 17.65625 -13.570312 18.9375 -15.34375 C 19.300781 -15.9375 19.65625 -16.523438 20 -17.109375 C 20.351562 -17.703125 20.6875 -18.242188 21 -18.734375 C 21.207031 -19.023438 21.441406 -19.171875 21.703125 -19.171875 L 23.734375 -19.125 C 23.960938 -19.125 24.109375 -19.054688 24.171875 -18.921875 C 24.242188 -18.796875 24.210938 -18.628906 24.078125 -18.421875 C 23.273438 -17.148438 22.4375 -15.789062 21.5625 -14.34375 C 20.6875 -12.894531 19.863281 -11.429688 19.09375 -9.953125 C 17.375 -6.671875 16.515625 -4.367188 16.515625 -3.046875 C 16.515625 -2.265625 16.863281 -1.875 17.5625 -1.875 C 18.394531 -1.875 19.59375 -2.601562 21.15625 -4.0625 L 21.46875 -3.671875 C 20.09375 -2.367188 18.847656 -1.378906 17.734375 -0.703125 C 16.628906 -0.0234375 15.78125 0.3125 15.1875 0.3125 Z M 15.1875 0.3125 "/></g></g><g style="fill:#f2f2f2;fill-opacity:1;"><g transform="translate(98.064036, 53.692754)"><path style="stroke:none" d="M 11.9375 0 C 11.726562 0 11.578125 -0.0625 11.484375 -0.1875 C 11.398438 -0.320312 11.410156 -0.492188 11.515625 -0.703125 C 12.523438 -2.578125 13.519531 -4.410156 14.5 -6.203125 C 15.476562 -8.003906 16.265625 -9.488281 16.859375 -10.65625 C 17.691406 -12.320312 18.316406 -13.640625 18.734375 -14.609375 C 19.148438 -15.585938 19.359375 -16.300781 19.359375 -16.75 C 19.359375 -17.03125 19.28125 -17.273438 19.125 -17.484375 C 18.96875 -17.691406 18.707031 -17.796875 18.34375 -17.796875 C 17.664062 -17.796875 16.835938 -17.441406 15.859375 -16.734375 C 14.890625 -16.035156 13.78125 -15.101562 12.53125 -13.9375 C 11.195312 -12.6875 9.875 -11.253906 8.5625 -9.640625 C 7.25 -8.023438 6.019531 -6.359375 4.875 -4.640625 C 3.726562 -2.585938 2.910156 -1.179688 2.421875 -0.421875 C 2.234375 -0.140625 2 0 1.71875 0 L -0.15625 0 C -0.363281 0 -0.5 -0.0664062 -0.5625 -0.203125 C -0.625 -0.347656 -0.601562 -0.523438 -0.5 -0.734375 C -0.0078125 -1.566406 0.5625 -2.582031 1.21875 -3.78125 C 1.882812 -4.976562 2.578125 -6.234375 3.296875 -7.546875 C 4.015625 -8.867188 4.671875 -10.144531 5.265625 -11.375 C 5.867188 -12.613281 6.359375 -13.707031 6.734375 -14.65625 C 7.109375 -15.601562 7.296875 -16.285156 7.296875 -16.703125 C 7.296875 -17.378906 6.957031 -17.71875 6.28125 -17.71875 C 5.863281 -17.71875 5.34375 -17.539062 4.71875 -17.1875 C 4.09375 -16.84375 3.335938 -16.265625 2.453125 -15.453125 L 2.140625 -15.84375 C 3.578125 -17.144531 4.859375 -18.132812 5.984375 -18.8125 C 7.117188 -19.488281 8.015625 -19.828125 8.671875 -19.828125 C 9.421875 -19.828125 9.9375 -19.597656 10.21875 -19.140625 C 10.507812 -18.691406 10.65625 -18.242188 10.65625 -17.796875 C 10.65625 -17.273438 10.457031 -16.488281 10.0625 -15.4375 C 9.675781 -14.382812 9.171875 -13.191406 8.546875 -11.859375 C 7.921875 -10.535156 7.257812 -9.195312 6.5625 -7.84375 C 8.40625 -10.257812 10.289062 -12.421875 12.21875 -14.328125 C 13.957031 -16.015625 15.585938 -17.351562 17.109375 -18.34375 C 18.640625 -19.332031 19.867188 -19.828125 20.796875 -19.828125 C 21.472656 -19.828125 21.96875 -19.597656 22.28125 -19.140625 C 22.59375 -18.691406 22.75 -18.207031 22.75 -17.6875 C 22.75 -17.34375 22.675781 -16.910156 22.53125 -16.390625 C 22.394531 -15.867188 22.109375 -15.132812 21.671875 -14.1875 C 21.242188 -13.238281 20.601562 -11.914062 19.75 -10.21875 C 19.570312 -9.882812 19.382812 -9.53125 19.1875 -9.15625 C 18.988281 -8.78125 18.773438 -8.382812 18.546875 -7.96875 C 20.253906 -10.195312 21.972656 -12.207031 23.703125 -14 C 25.441406 -15.800781 27.0625 -17.222656 28.5625 -18.265625 C 30.070312 -19.304688 31.335938 -19.828125 32.359375 -19.828125 C 33.003906 -19.828125 33.488281 -19.597656 33.8125 -19.140625 C 34.144531 -18.691406 34.3125 -18.207031 34.3125 -17.6875 C 34.3125 -16.957031 34.078125 -16.070312 33.609375 -15.03125 C 33.140625 -13.988281 32.554688 -12.878906 31.859375 -11.703125 C 31.171875 -10.535156 30.488281 -9.378906 29.8125 -8.234375 C 29.144531 -7.085938 28.578125 -6.046875 28.109375 -5.109375 C 27.640625 -4.171875 27.40625 -3.429688 27.40625 -2.890625 C 27.40625 -2.179688 27.78125 -1.828125 28.53125 -1.828125 C 29.332031 -1.828125 30.53125 -2.570312 32.125 -4.0625 L 32.4375 -3.671875 C 31 -2.367188 29.738281 -1.378906 28.65625 -0.703125 C 27.582031 -0.0234375 26.75 0.3125 26.15625 0.3125 C 25.320312 0.3125 24.75 0.0507812 24.4375 -0.46875 C 24.125 -0.988281 23.96875 -1.484375 23.96875 -1.953125 C 23.96875 -2.753906 24.203125 -3.6875 24.671875 -4.75 C 25.140625 -5.820312 25.71875 -6.9375 26.40625 -8.09375 C 27.09375 -9.25 27.785156 -10.378906 28.484375 -11.484375 C 29.191406 -12.597656 29.769531 -13.613281 30.21875 -14.53125 C 30.675781 -15.457031 30.90625 -16.195312 30.90625 -16.75 C 30.90625 -17.445312 30.566406 -17.796875 29.890625 -17.796875 C 29.273438 -17.796875 28.457031 -17.425781 27.4375 -16.6875 C 26.425781 -15.945312 25.304688 -14.953125 24.078125 -13.703125 C 22.859375 -12.453125 21.617188 -11.046875 20.359375 -9.484375 C 19.097656 -7.921875 17.894531 -6.320312 16.75 -4.6875 C 16.40625 -4.0625 16.050781 -3.394531 15.6875 -2.6875 C 15.320312 -1.988281 14.945312 -1.234375 14.5625 -0.421875 C 14.425781 -0.140625 14.191406 0 13.859375 0 Z M 11.9375 0 "/></g></g><g style="fill:#f2f2f2;fill-opacity:1;"><g transform="translate(132.643349, 53.692754)"><path style="stroke:none" d="M 5.078125 0.265625 C 4.003906 0.265625 3.128906 0.046875 2.453125 -0.390625 C 1.773438 -0.828125 1.273438 -1.394531 0.953125 -2.09375 C 0.628906 -2.800781 0.46875 -3.535156 0.46875 -4.296875 C 0.46875 -5.671875 0.785156 -7.085938 1.421875 -8.546875 C 2.054688 -10.003906 2.90625 -11.398438 3.96875 -12.734375 C 5.039062 -14.078125 6.234375 -15.28125 7.546875 -16.34375 C 8.867188 -17.414062 10.21875 -18.265625 11.59375 -18.890625 C 12.96875 -19.515625 14.269531 -19.828125 15.5 -19.828125 C 16.507812 -19.828125 17.269531 -19.617188 17.78125 -19.203125 C 18.289062 -18.785156 18.546875 -18.238281 18.546875 -17.5625 C 18.546875 -16.9375 18.320312 -16.265625 17.875 -15.546875 C 17.4375 -14.835938 16.675781 -14.015625 15.59375 -13.078125 C 14.507812 -12.140625 13.019531 -11.019531 11.125 -9.71875 C 9.226562 -8.414062 6.820312 -6.84375 3.90625 -5 C 4.03125 -4.082031 4.382812 -3.332031 4.96875 -2.75 C 5.5625 -2.164062 6.414062 -1.875 7.53125 -1.875 C 8.207031 -1.875 9.039062 -2.046875 10.03125 -2.390625 C 11.019531 -2.742188 12.191406 -3.519531 13.546875 -4.71875 L 13.859375 -4.375 C 12.140625 -2.78125 10.492188 -1.609375 8.921875 -0.859375 C 7.347656 -0.109375 6.066406 0.265625 5.078125 0.265625 Z M 3.859375 -5.546875 C 6.617188 -7.265625 8.820312 -8.753906 10.46875 -10.015625 C 12.125 -11.273438 13.328125 -12.40625 14.078125 -13.40625 C 14.835938 -14.40625 15.21875 -15.375 15.21875 -16.3125 C 15.21875 -16.96875 15.003906 -17.46875 14.578125 -17.8125 C 14.148438 -18.164062 13.609375 -18.34375 12.953125 -18.34375 C 11.960938 -18.34375 11.003906 -18.066406 10.078125 -17.515625 C 9.160156 -16.972656 8.316406 -16.242188 7.546875 -15.328125 C 6.785156 -14.421875 6.125 -13.40625 5.5625 -12.28125 C 5 -11.164062 4.566406 -10.03125 4.265625 -8.875 C 3.972656 -7.71875 3.835938 -6.617188 3.859375 -5.578125 Z M 3.859375 -5.546875 "/></g></g><g style="fill:#f2f2f2;fill-opacity:1;"><g transform="translate(149.737863, 53.692754)"><path style="stroke:none" d=""/></g></g><g style="fill:#f2f2f2;fill-opacity:1;"><g transform="translate(157.543579, 53.692754)"><path style="stroke:none" d="M 9.953125 0.265625 C 8.859375 0.265625 7.691406 0.242188 6.453125 0.203125 C 5.222656 0.171875 4.050781 0.113281 2.9375 0.03125 C 1.832031 -0.0390625 0.914062 -0.113281 0.1875 -0.1875 C 0.0078125 -0.21875 -0.101562 -0.25 -0.15625 -0.28125 C -0.207031 -0.320312 -0.234375 -0.382812 -0.234375 -0.46875 C -0.234375 -0.59375 -0.0664062 -0.796875 0.265625 -1.078125 C 0.609375 -1.367188 0.960938 -1.644531 1.328125 -1.90625 L 1.484375 -2.03125 L 2.140625 -2.5 C 2.640625 -2.863281 3.070312 -3.320312 3.4375 -3.875 C 3.800781 -4.4375 4.191406 -5.082031 4.609375 -5.8125 C 5.753906 -7.820312 6.800781 -9.804688 7.75 -11.765625 C 8.695312 -13.734375 9.644531 -15.691406 10.59375 -17.640625 C 11.539062 -19.585938 12.585938 -21.566406 13.734375 -23.578125 C 14.253906 -24.484375 14.820312 -25.25 15.4375 -25.875 C 16.050781 -26.5 16.835938 -27.097656 17.796875 -27.671875 L 19.546875 -28.65625 L 11.046875 -28.65625 C 10.035156 -28.625 9.269531 -28.429688 8.75 -28.078125 C 8.226562 -27.734375 7.65625 -27.234375 7.03125 -26.578125 L 6.71875 -26.8125 C 7.34375 -27.625 7.914062 -28.347656 8.4375 -28.984375 C 8.957031 -29.617188 9.5 -30.171875 10.0625 -30.640625 C 10.351562 -30.847656 10.671875 -30.992188 11.015625 -31.078125 C 11.367188 -31.171875 11.71875 -31.21875 12.0625 -31.21875 L 23.921875 -31.21875 C 25.742188 -31.21875 27.1875 -30.992188 28.25 -30.546875 C 29.320312 -30.109375 30.097656 -29.53125 30.578125 -28.8125 C 31.054688 -28.101562 31.296875 -27.332031 31.296875 -26.5 C 31.296875 -25.332031 30.984375 -24.242188 30.359375 -23.234375 C 29.734375 -22.234375 28.921875 -21.347656 27.921875 -20.578125 C 26.921875 -19.816406 25.835938 -19.191406 24.671875 -18.703125 C 25.785156 -18.492188 26.703125 -18 27.421875 -17.21875 C 28.140625 -16.4375 28.5 -15.445312 28.5 -14.25 C 28.5 -12.8125 28.117188 -11.390625 27.359375 -9.984375 C 26.609375 -8.585938 25.59375 -7.269531 24.3125 -6.03125 C 23.039062 -4.789062 21.597656 -3.695312 19.984375 -2.75 C 18.367188 -1.800781 16.703125 -1.0625 14.984375 -0.53125 C 13.265625 0 11.585938 0.265625 9.953125 0.265625 Z M 3.59375 -2.734375 C 3.976562 -2.679688 4.546875 -2.617188 5.296875 -2.546875 C 6.054688 -2.484375 6.914062 -2.425781 7.875 -2.375 C 8.84375 -2.320312 9.820312 -2.269531 10.8125 -2.21875 C 11.800781 -2.164062 12.722656 -2.140625 13.578125 -2.140625 C 15.953125 -2.117188 17.988281 -2.535156 19.6875 -3.390625 C 21.394531 -4.253906 22.722656 -5.476562 23.671875 -7.0625 C 24.617188 -8.65625 25.117188 -10.539062 25.171875 -12.71875 C 25.222656 -14.101562 24.894531 -15.289062 24.1875 -16.28125 C 23.488281 -17.269531 22.453125 -17.765625 21.078125 -17.765625 L 16.3125 -17.765625 L 16.671875 -18.390625 L 20.921875 -18.390625 C 22.140625 -18.390625 23.203125 -18.59375 24.109375 -19 C 25.023438 -19.414062 25.800781 -19.957031 26.4375 -20.625 C 27.082031 -21.289062 27.5625 -21.992188 27.875 -22.734375 C 28.1875 -23.472656 28.34375 -24.171875 28.34375 -24.828125 C 28.34375 -25.972656 27.992188 -26.816406 27.296875 -27.359375 C 26.609375 -27.910156 25.753906 -28.265625 24.734375 -28.421875 C 23.722656 -28.578125 22.6875 -28.65625 21.625 -28.65625 L 20.5625 -28.65625 C 19.8125 -28.132812 19.222656 -27.539062 18.796875 -26.875 C 18.367188 -26.207031 17.929688 -25.5 17.484375 -24.75 C 16.335938 -22.789062 15.300781 -20.847656 14.375 -18.921875 C 13.457031 -17.003906 12.539062 -15.085938 11.625 -13.171875 C 10.71875 -11.253906 9.707031 -9.3125 8.59375 -7.34375 C 8.09375 -6.457031 7.585938 -5.738281 7.078125 -5.1875 C 6.578125 -4.644531 5.945312 -4.148438 5.1875 -3.703125 Z M 3.59375 -2.734375 "/></g></g><g style="fill:#f2f2f2;fill-opacity:1;"><g transform="translate(186.97111, 53.692754)"><path style="stroke:none" d="M 15.1875 0.3125 C 14.351562 0.3125 13.789062 0.046875 13.5 -0.484375 C 13.21875 -1.015625 13.078125 -1.515625 13.078125 -1.984375 C 13.078125 -3.210938 13.429688 -4.671875 14.140625 -6.359375 C 14.859375 -8.054688 15.703125 -9.773438 16.671875 -11.515625 C 15.804688 -10.390625 14.941406 -9.320312 14.078125 -8.3125 C 13.222656 -7.300781 12.378906 -6.351562 11.546875 -5.46875 C 9.941406 -3.71875 8.4375 -2.316406 7.03125 -1.265625 C 5.625 -0.210938 4.425781 0.3125 3.4375 0.3125 C 2.78125 0.3125 2.171875 0.0859375 1.609375 -0.359375 C 1.054688 -0.816406 0.78125 -1.4375 0.78125 -2.21875 C 0.78125 -2.875 1.015625 -3.6875 1.484375 -4.65625 C 1.953125 -5.632812 2.535156 -6.695312 3.234375 -7.84375 C 3.941406 -8.988281 4.640625 -10.125 5.328125 -11.25 C 6.015625 -12.382812 6.59375 -13.425781 7.0625 -14.375 C 7.53125 -15.332031 7.765625 -16.109375 7.765625 -16.703125 C 7.765625 -17.359375 7.453125 -17.6875 6.828125 -17.6875 C 6.410156 -17.6875 5.890625 -17.515625 5.265625 -17.171875 C 4.640625 -16.835938 3.898438 -16.265625 3.046875 -15.453125 L 2.734375 -15.84375 C 4.140625 -17.144531 5.40625 -18.132812 6.53125 -18.8125 C 7.664062 -19.488281 8.5625 -19.828125 9.21875 -19.828125 C 9.96875 -19.828125 10.488281 -19.597656 10.78125 -19.140625 C 11.082031 -18.691406 11.234375 -18.242188 11.234375 -17.796875 C 11.234375 -17.097656 11 -16.234375 10.53125 -15.203125 C 10.0625 -14.171875 9.484375 -13.0625 8.796875 -11.875 C 8.109375 -10.695312 7.421875 -9.535156 6.734375 -8.390625 C 6.046875 -7.242188 5.46875 -6.203125 5 -5.265625 C 4.53125 -4.328125 4.296875 -3.585938 4.296875 -3.046875 C 4.296875 -2.734375 4.382812 -2.445312 4.5625 -2.1875 C 4.75 -1.925781 5.085938 -1.796875 5.578125 -1.796875 C 6.253906 -1.796875 7.054688 -2.144531 7.984375 -2.84375 C 8.910156 -3.550781 9.96875 -4.539062 11.15625 -5.8125 C 12.382812 -7.09375 13.664062 -8.554688 15 -10.203125 C 16.34375 -11.859375 17.65625 -13.570312 18.9375 -15.34375 C 19.300781 -15.9375 19.65625 -16.523438 20 -17.109375 C 20.351562 -17.703125 20.6875 -18.242188 21 -18.734375 C 21.207031 -19.023438 21.441406 -19.171875 21.703125 -19.171875 L 23.734375 -19.125 C 23.960938 -19.125 24.109375 -19.054688 24.171875 -18.921875 C 24.242188 -18.796875 24.210938 -18.628906 24.078125 -18.421875 C 23.273438 -17.148438 22.4375 -15.789062 21.5625 -14.34375 C 20.6875 -12.894531 19.863281 -11.429688 19.09375 -9.953125 C 17.375 -6.671875 16.515625 -4.367188 16.515625 -3.046875 C 16.515625 -2.265625 16.863281 -1.875 17.5625 -1.875 C 18.394531 -1.875 19.59375 -2.601562 21.15625 -4.0625 L 21.46875 -3.671875 C 20.09375 -2.367188 18.847656 -1.378906 17.734375 -0.703125 C 16.628906 -0.0234375 15.78125 0.3125 15.1875 0.3125 Z M 15.1875 0.3125 "/></g></g><g style="fill:#f2f2f2;fill-opacity:1;"><g transform="translate(210.973684, 53.692754)"><path style="stroke:none" d="M 2.53125 0.3125 C 1.75 0.3125 1.195312 0.046875 0.875 -0.484375 C 0.550781 -1.015625 0.390625 -1.53125 0.390625 -2.03125 C 0.390625 -2.78125 0.632812 -3.695312 1.125 -4.78125 C 1.625 -5.863281 2.242188 -7 2.984375 -8.1875 C 3.722656 -9.382812 4.460938 -10.550781 5.203125 -11.6875 C 5.953125 -12.820312 6.570312 -13.835938 7.0625 -14.734375 C 7.5625 -15.628906 7.8125 -16.300781 7.8125 -16.75 C 7.8125 -17.394531 7.484375 -17.71875 6.828125 -17.71875 C 6.441406 -17.71875 5.925781 -17.539062 5.28125 -17.1875 C 4.644531 -16.84375 3.882812 -16.265625 3 -15.453125 L 2.6875 -15.84375 C 4.125 -17.144531 5.40625 -18.132812 6.53125 -18.8125 C 7.664062 -19.488281 8.570312 -19.828125 9.25 -19.828125 C 9.976562 -19.828125 10.484375 -19.597656 10.765625 -19.140625 C 11.054688 -18.691406 11.203125 -18.242188 11.203125 -17.796875 C 11.203125 -17.097656 10.960938 -16.242188 10.484375 -15.234375 C 10.003906 -14.234375 9.410156 -13.164062 8.703125 -12.03125 C 8.003906 -10.90625 7.300781 -9.789062 6.59375 -8.6875 C 5.894531 -7.582031 5.300781 -6.566406 4.8125 -5.640625 C 4.332031 -4.710938 4.09375 -3.976562 4.09375 -3.4375 C 4.09375 -2.625 4.484375 -2.21875 5.265625 -2.21875 C 5.660156 -2.21875 6.117188 -2.34375 6.640625 -2.59375 C 7.160156 -2.84375 7.820312 -3.332031 8.625 -4.0625 L 8.9375 -3.671875 C 7.507812 -2.390625 6.25 -1.40625 5.15625 -0.71875 C 4.0625 -0.03125 3.1875 0.3125 2.53125 0.3125 Z M 10.609375 -22.5625 L 17.6875 -29.046875 C 17.96875 -29.296875 18.195312 -29.5 18.375 -29.65625 C 18.5625 -29.8125 18.707031 -29.890625 18.8125 -29.890625 C 19 -29.890625 19.09375 -29.722656 19.09375 -29.390625 C 19.09375 -29.054688 19.039062 -28.8125 18.9375 -28.65625 C 18.832031 -28.5 18.609375 -28.289062 18.265625 -28.03125 L 10.84375 -22.25 Z M 10.609375 -22.5625 "/></g></g><g style="fill:#f2f2f2;fill-opacity:1;"><g transform="translate(222.338428, 53.692754)"><path style="stroke:none" d=""/></g></g><g style="fill:#f2f2f2;fill-opacity:1;"><g transform="translate(230.144144, 53.692754)"><path style="stroke:none" d=""/></g></g><g style="fill:#f2f2f2;fill-opacity:1;"><g transform="translate(237.953615, 53.692754)"><path style="stroke:none" d="M 4.640625 0.234375 C 3.421875 0.234375 2.445312 -0.210938 1.71875 -1.109375 C 0.988281 -2.003906 0.625 -3.117188 0.625 -4.453125 C 0.625 -5.722656 0.910156 -7.0625 1.484375 -8.46875 C 2.054688 -9.875 2.828125 -11.242188 3.796875 -12.578125 C 4.773438 -13.921875 5.894531 -15.140625 7.15625 -16.234375 C 8.425781 -17.328125 9.753906 -18.195312 11.140625 -18.84375 C 12.535156 -19.5 13.910156 -19.828125 15.265625 -19.828125 C 15.804688 -19.828125 16.367188 -19.800781 16.953125 -19.75 C 17.546875 -19.695312 18.15625 -19.59375 18.78125 -19.4375 C 19.144531 -20.738281 19.414062 -21.988281 19.59375 -23.1875 C 19.769531 -24.382812 19.859375 -25.476562 19.859375 -26.46875 C 19.859375 -27.613281 19.65625 -28.453125 19.25 -28.984375 C 18.851562 -29.515625 18.289062 -29.78125 17.5625 -29.78125 C 16.757812 -29.78125 15.878906 -29.472656 14.921875 -28.859375 C 13.972656 -28.253906 13.046875 -27.507812 12.140625 -26.625 L 11.828125 -26.96875 C 13.203125 -28.351562 14.585938 -29.457031 15.984375 -30.28125 C 17.378906 -31.113281 18.617188 -31.53125 19.703125 -31.53125 C 20.953125 -31.53125 21.84375 -31.132812 22.375 -30.34375 C 22.914062 -29.550781 23.1875 -28.554688 23.1875 -27.359375 C 23.1875 -26.160156 22.984375 -24.773438 22.578125 -23.203125 C 22.171875 -21.628906 21.597656 -19.96875 20.859375 -18.21875 C 20.117188 -16.476562 19.253906 -14.726562 18.265625 -12.96875 C 17.273438 -11.21875 16.210938 -9.554688 15.078125 -7.984375 C 13.953125 -6.410156 12.785156 -5.003906 11.578125 -3.765625 C 10.367188 -2.523438 9.175781 -1.546875 8 -0.828125 C 6.832031 -0.117188 5.710938 0.234375 4.640625 0.234375 Z M 3.984375 -5.34375 C 3.984375 -4.25 4.203125 -3.34375 4.640625 -2.625 C 5.085938 -1.914062 5.78125 -1.5625 6.71875 -1.5625 C 7.78125 -1.5625 8.84375 -1.988281 9.90625 -2.84375 C 10.976562 -3.707031 12.015625 -4.867188 13.015625 -6.328125 C 14.015625 -7.785156 14.9375 -9.410156 15.78125 -11.203125 C 16.632812 -12.992188 17.375 -14.828125 18 -16.703125 C 15.988281 -17.671875 14.097656 -18.15625 12.328125 -18.15625 C 10.972656 -18.15625 9.773438 -17.726562 8.734375 -16.875 C 7.703125 -16.03125 6.828125 -14.953125 6.109375 -13.640625 C 5.390625 -12.328125 4.847656 -10.925781 4.484375 -9.4375 C 4.117188 -7.957031 3.953125 -6.59375 3.984375 -5.34375 Z M 3.984375 -5.34375 "/></g></g><g style="fill:#f2f2f2;fill-opacity:1;"><g transform="translate(256.921496, 53.692754)"><path style="stroke:none" d="M 5.078125 0.265625 C 4.003906 0.265625 3.128906 0.046875 2.453125 -0.390625 C 1.773438 -0.828125 1.273438 -1.394531 0.953125 -2.09375 C 0.628906 -2.800781 0.46875 -3.535156 0.46875 -4.296875 C 0.46875 -5.671875 0.785156 -7.085938 1.421875 -8.546875 C 2.054688 -10.003906 2.90625 -11.398438 3.96875 -12.734375 C 5.039062 -14.078125 6.234375 -15.28125 7.546875 -16.34375 C 8.867188 -17.414062 10.21875 -18.265625 11.59375 -18.890625 C 12.96875 -19.515625 14.269531 -19.828125 15.5 -19.828125 C 16.507812 -19.828125 17.269531 -19.617188 17.78125 -19.203125 C 18.289062 -18.785156 18.546875 -18.238281 18.546875 -17.5625 C 18.546875 -16.9375 18.320312 -16.265625 17.875 -15.546875 C 17.4375 -14.835938 16.675781 -14.015625 15.59375 -13.078125 C 14.507812 -12.140625 13.019531 -11.019531 11.125 -9.71875 C 9.226562 -8.414062 6.820312 -6.84375 3.90625 -5 C 4.03125 -4.082031 4.382812 -3.332031 4.96875 -2.75 C 5.5625 -2.164062 6.414062 -1.875 7.53125 -1.875 C 8.207031 -1.875 9.039062 -2.046875 10.03125 -2.390625 C 11.019531 -2.742188 12.191406 -3.519531 13.546875 -4.71875 L 13.859375 -4.375 C 12.140625 -2.78125 10.492188 -1.609375 8.921875 -0.859375 C 7.347656 -0.109375 6.066406 0.265625 5.078125 0.265625 Z M 3.859375 -5.546875 C 6.617188 -7.265625 8.820312 -8.753906 10.46875 -10.015625 C 12.125 -11.273438 13.328125 -12.40625 14.078125 -13.40625 C 14.835938 -14.40625 15.21875 -15.375 15.21875 -16.3125 C 15.21875 -16.96875 15.003906 -17.46875 14.578125 -17.8125 C 14.148438 -18.164062 13.609375 -18.34375 12.953125 -18.34375 C 11.960938 -18.34375 11.003906 -18.066406 10.078125 -17.515625 C 9.160156 -16.972656 8.316406 -16.242188 7.546875 -15.328125 C 6.785156 -14.421875 6.125 -13.40625 5.5625 -12.28125 C 5 -11.164062 4.566406 -10.03125 4.265625 -8.875 C 3.972656 -7.71875 3.835938 -6.617188 3.859375 -5.578125 Z M 3.859375 -5.546875 "/></g></g><g style="fill:#f2f2f2;fill-opacity:1;"><g transform="translate(274.016011, 53.692754)"><path style="stroke:none" d="M -0.15625 0 C -0.363281 0 -0.5 -0.0664062 -0.5625 -0.203125 C -0.625 -0.347656 -0.601562 -0.523438 -0.5 -0.734375 C -0.0078125 -1.566406 0.5625 -2.582031 1.21875 -3.78125 C 1.882812 -4.976562 2.578125 -6.234375 3.296875 -7.546875 C 4.015625 -8.867188 4.671875 -10.144531 5.265625 -11.375 C 5.867188 -12.613281 6.359375 -13.707031 6.734375 -14.65625 C 7.109375 -15.601562 7.296875 -16.285156 7.296875 -16.703125 C 7.296875 -17.378906 6.957031 -17.71875 6.28125 -17.71875 C 5.863281 -17.71875 5.34375 -17.539062 4.71875 -17.1875 C 4.09375 -16.84375 3.335938 -16.265625 2.453125 -15.453125 L 2.140625 -15.84375 C 3.578125 -17.144531 4.859375 -18.132812 5.984375 -18.8125 C 7.117188 -19.488281 8.015625 -19.828125 8.671875 -19.828125 C 9.421875 -19.828125 9.9375 -19.597656 10.21875 -19.140625 C 10.507812 -18.691406 10.65625 -18.242188 10.65625 -17.796875 C 10.65625 -17.328125 10.5 -16.644531 10.1875 -15.75 C 9.875 -14.851562 9.457031 -13.832031 8.9375 -12.6875 C 9.84375 -14.039062 10.8125 -15.25 11.84375 -16.3125 C 12.875 -17.382812 14 -18.238281 15.21875 -18.875 C 16.445312 -19.507812 17.789062 -19.828125 19.25 -19.828125 C 19.707031 -19.828125 20.203125 -19.769531 20.734375 -19.65625 C 21.273438 -19.539062 21.546875 -19.328125 21.546875 -19.015625 C 21.546875 -18.703125 21.40625 -18.34375 21.125 -17.9375 C 20.851562 -17.53125 20.507812 -17.175781 20.09375 -16.875 C 19.6875 -16.582031 19.234375 -16.4375 18.734375 -16.4375 C 18.109375 -16.4375 17.410156 -16.5 16.640625 -16.625 C 15.878906 -16.757812 14.9375 -16.992188 13.8125 -17.328125 C 12.71875 -16.628906 11.5625 -15.460938 10.34375 -13.828125 C 9.125 -12.203125 7.953125 -10.390625 6.828125 -8.390625 C 6.234375 -7.222656 5.640625 -6.097656 5.046875 -5.015625 C 4.460938 -3.929688 3.9375 -2.984375 3.46875 -2.171875 C 3 -1.367188 2.648438 -0.785156 2.421875 -0.421875 C 2.234375 -0.140625 2 0 1.71875 0 Z M -0.15625 0 "/></g></g><g clip-rule="nonzero" clip-path="url(#a027d4dee9)"><path style=" stroke:none;fill-rule:evenodd;fill:#f2f2f2;fill-opacity:1;" d="M 231.265625 49.203125 C 232.191406 47.96875 233.234375 46.9375 234.375 45.210938 C 233.910156 45.484375 233.664062 45.625 233.242188 45.832031 C 234.921875 44.34375 236.597656 42.242188 237.179688 40.132812 C 237.46875 39.09375 237.460938 35.710938 236.867188 34.199219 C 236.425781 34.738281 235.964844 35.296875 235.511719 35.832031 C 235.984375 35.066406 236.632812 33.699219 236.898438 32.824219 C 236.210938 33.808594 235.394531 34.59375 234.554688 35.296875 C 235.503906 34.167969 236.351562 32.964844 236.621094 32.394531 C 235.804688 28.597656 238.125 25.523438 239.296875 22.242188 L 237.761719 22.644531 C 238.511719 22.230469 239.332031 21.792969 239.695312 21.320312 C 241.007812 18.191406 242.0625 11.265625 238.941406 7.925781 C 239.632812 9.820312 239.503906 12.0625 238.425781 13.816406 C 238.511719 14.351562 238.554688 14.691406 238.566406 15.359375 L 238.148438 14.109375 C 237.695312 15.707031 236.234375 17.710938 235.492188 18.945312 C 235.503906 19.515625 235.492188 20.007812 235.4375 20.664062 L 235.253906 19.613281 C 233.199219 22.601562 230.449219 25.164062 228.652344 28.074219 C 226.769531 31.113281 226.382812 34.082031 227.769531 38.554688 C 226.578125 36.402344 226.308594 33.773438 226.46875 32.382812 C 225.308594 34.398438 224.867188 37.253906 225.265625 39.550781 L 224.804688 39.09375 C 224.664062 41.359375 225.75 43.535156 227.234375 45.84375 L 226.148438 44.902344 C 227.222656 46.753906 228.726562 48.339844 229.640625 49.214844 C 229.007812 44.039062 229.285156 38.644531 230.460938 33.9375 C 231.199219 30.996094 232.285156 28.3125 233.621094 25.632812 C 234.265625 24.332031 238.265625 17.785156 238.941406 16.210938 C 238.289062 18.246094 234.40625 24.800781 233.683594 26.34375 C 231.113281 31.882812 229.921875 36.730469 229.804688 43.601562 C 229.769531 45.429688 229.910156 47.804688 230.082031 49.675781 L 228.457031 49.675781 C 228.328125 49.675781 228.210938 49.785156 228.210938 49.925781 C 228.210938 50.058594 228.320312 50.175781 228.457031 50.175781 L 232.210938 50.175781 C 232.339844 50.175781 232.460938 50.066406 232.460938 49.925781 C 232.460938 49.792969 232.351562 49.675781 232.210938 49.675781 L 230.554688 49.675781 C 230.394531 48.140625 230.265625 45.886719 230.308594 43.4375 C 230.382812 39.386719 230.855469 34.902344 231.769531 32.953125 C 230.867188 36.421875 230.46875 43.371094 231.265625 49.203125 Z M 230.371094 59.773438 C 235.191406 61.152344 240.964844 60.96875 245.921875 59.894531 C 251.578125 58.667969 247.621094 57.652344 243.867188 57.148438 C 242.425781 56.949219 236.523438 56.097656 238.027344 54.695312 C 239.589844 53.230469 244.976562 54.894531 246.09375 52.914062 C 246.921875 51.46875 246.867188 51.46875 248.984375 50.945312 C 249.289062 50.867188 249.40625 50.800781 249.492188 50.625 C 249.375 50.921875 249.074219 50.953125 248.597656 51.085938 C 246.554688 51.644531 247.039062 52.269531 246.40625 53.285156 C 245.351562 54.992188 239.222656 54.148438 238.847656 55.046875 C 238.449219 56.011719 245.277344 56.742188 246.417969 56.960938 C 249.996094 57.664062 251.253906 59.0625 247.417969 60.144531 C 242.167969 61.601562 235.351562 61.492188 230.371094 59.773438 Z M 227.738281 55.242188 C 228.847656 56.394531 229.890625 57.652344 230.179688 59.488281 L 230.210938 59.488281 L 230.210938 55.199219 C 230.007812 55.144531 229.855469 54.960938 229.855469 54.730469 C 229.855469 54.46875 230.070312 54.25 230.328125 54.25 C 230.589844 54.25 230.804688 54.46875 230.804688 54.730469 C 230.804688 54.949219 230.652344 55.144531 230.449219 55.199219 L 230.449219 59.480469 L 230.480469 59.480469 C 230.769531 57.640625 231.804688 56.382812 232.921875 55.234375 C 232.40625 53.929688 232.050781 52.355469 231.792969 50.648438 L 228.867188 50.648438 C 228.621094 52.367188 228.253906 53.929688 227.738281 55.242188 Z M 227.738281 55.242188 "/></g></g></svg>